<mxfile host="app.diagrams.net" modified="2024-03-03T20:51:31.232Z" agent="Mozilla/5.0 (Windows NT 10.0; Win64; x64) AppleWebKit/537.36 (KHTML, like Gecko) Chrome/122.0.0.0 Safari/537.36" etag="9e-0I0q2r1RCA59oaDRb" version="24.0.0" type="github">
  <diagram name="Page-1" id="ZAoGt4FXROpWS3KdXkW3">
    <mxGraphModel dx="1687" dy="969" grid="1" gridSize="10" guides="1" tooltips="1" connect="1" arrows="1" fold="1" page="1" pageScale="1" pageWidth="850" pageHeight="1100" math="0" shadow="0">
      <root>
        <mxCell id="0" />
        <mxCell id="1" parent="0" />
        <mxCell id="VETsok0JzTp0urhvgEMF-19" value="" style="edgeStyle=orthogonalEdgeStyle;rounded=0;orthogonalLoop=1;jettySize=auto;html=1;endArrow=none;endFill=0;strokeColor=#C9C9C9;" edge="1" parent="1" source="VETsok0JzTp0urhvgEMF-1" target="VETsok0JzTp0urhvgEMF-2">
          <mxGeometry relative="1" as="geometry" />
        </mxCell>
        <mxCell id="VETsok0JzTp0urhvgEMF-1" value="" style="whiteSpace=wrap;html=1;aspect=fixed;" vertex="1" parent="1">
          <mxGeometry x="278.75" y="659" width="140" height="140" as="geometry" />
        </mxCell>
        <mxCell id="VETsok0JzTp0urhvgEMF-2" value="" style="rounded=0;whiteSpace=wrap;html=1;" vertex="1" parent="1">
          <mxGeometry x="306.25" y="479" width="85" height="150" as="geometry" />
        </mxCell>
        <mxCell id="VETsok0JzTp0urhvgEMF-3" value="" style="rounded=0;whiteSpace=wrap;html=1;" vertex="1" parent="1">
          <mxGeometry x="240" y="329" width="217.5" height="120" as="geometry" />
        </mxCell>
        <mxCell id="VETsok0JzTp0urhvgEMF-4" value="" style="rounded=0;whiteSpace=wrap;html=1;" vertex="1" parent="1">
          <mxGeometry x="491.25" y="359" width="160" height="140" as="geometry" />
        </mxCell>
        <mxCell id="VETsok0JzTp0urhvgEMF-5" value="" style="whiteSpace=wrap;html=1;aspect=fixed;" vertex="1" parent="1">
          <mxGeometry x="680" y="279" width="120" height="120" as="geometry" />
        </mxCell>
        <mxCell id="VETsok0JzTp0urhvgEMF-6" value="" style="whiteSpace=wrap;html=1;aspect=fixed;" vertex="1" parent="1">
          <mxGeometry x="491.25" y="529" width="160" height="160" as="geometry" />
        </mxCell>
        <mxCell id="VETsok0JzTp0urhvgEMF-7" value="" style="rounded=0;whiteSpace=wrap;html=1;" vertex="1" parent="1">
          <mxGeometry x="491.25" y="689" width="159.75" height="80" as="geometry" />
        </mxCell>
        <mxCell id="VETsok0JzTp0urhvgEMF-8" value="" style="whiteSpace=wrap;html=1;aspect=fixed;" vertex="1" parent="1">
          <mxGeometry x="50" y="309" width="160" height="160" as="geometry" />
        </mxCell>
        <mxCell id="VETsok0JzTp0urhvgEMF-9" value="" style="shape=parallelogram;perimeter=parallelogramPerimeter;whiteSpace=wrap;html=1;fixedSize=1;rotation=78.8;" vertex="1" parent="1">
          <mxGeometry x="60" y="182" width="130" height="100" as="geometry" />
        </mxCell>
        <mxCell id="VETsok0JzTp0urhvgEMF-10" value="" style="rounded=0;whiteSpace=wrap;html=1;" vertex="1" parent="1">
          <mxGeometry x="70" y="499" width="120" height="100" as="geometry" />
        </mxCell>
        <mxCell id="VETsok0JzTp0urhvgEMF-22" value="" style="group" vertex="1" connectable="0" parent="1">
          <mxGeometry x="338.75" y="629" width="20" height="5" as="geometry" />
        </mxCell>
        <mxCell id="VETsok0JzTp0urhvgEMF-18" value="" style="endArrow=none;html=1;rounded=0;strokeColor=#C9C9C9;strokeWidth=3;" edge="1" parent="VETsok0JzTp0urhvgEMF-22">
          <mxGeometry width="50" height="50" relative="1" as="geometry">
            <mxPoint as="sourcePoint" />
            <mxPoint x="20" as="targetPoint" />
          </mxGeometry>
        </mxCell>
        <mxCell id="VETsok0JzTp0urhvgEMF-21" value="" style="endArrow=none;html=1;rounded=0;strokeWidth=3;strokeColor=#C9C9C9;" edge="1" parent="VETsok0JzTp0urhvgEMF-22">
          <mxGeometry width="50" height="50" relative="1" as="geometry">
            <mxPoint x="9.930000000000007" y="5" as="sourcePoint" />
            <mxPoint x="9.930000000000007" as="targetPoint" />
          </mxGeometry>
        </mxCell>
        <mxCell id="VETsok0JzTp0urhvgEMF-23" value="" style="group" vertex="1" connectable="0" parent="1">
          <mxGeometry x="338.75" y="654" width="20" height="5" as="geometry" />
        </mxCell>
        <mxCell id="VETsok0JzTp0urhvgEMF-16" value="" style="endArrow=none;html=1;rounded=0;strokeColor=#C9C9C9;strokeWidth=3;" edge="1" parent="VETsok0JzTp0urhvgEMF-23">
          <mxGeometry width="50" height="50" relative="1" as="geometry">
            <mxPoint y="5" as="sourcePoint" />
            <mxPoint x="20" y="5" as="targetPoint" />
          </mxGeometry>
        </mxCell>
        <mxCell id="VETsok0JzTp0urhvgEMF-20" value="" style="endArrow=none;html=1;rounded=0;strokeWidth=3;strokeColor=#C9C9C9;" edge="1" parent="VETsok0JzTp0urhvgEMF-23">
          <mxGeometry width="50" height="50" relative="1" as="geometry">
            <mxPoint x="9.930000000000007" y="5" as="sourcePoint" />
            <mxPoint x="9.930000000000007" as="targetPoint" />
          </mxGeometry>
        </mxCell>
        <mxCell id="VETsok0JzTp0urhvgEMF-24" value="1" style="ellipse;whiteSpace=wrap;html=1;aspect=fixed;" vertex="1" parent="1">
          <mxGeometry x="281.75" y="662" width="20" height="20" as="geometry" />
        </mxCell>
        <mxCell id="VETsok0JzTp0urhvgEMF-25" value="2" style="ellipse;whiteSpace=wrap;html=1;aspect=fixed;" vertex="1" parent="1">
          <mxGeometry x="309.25" y="482" width="20" height="20" as="geometry" />
        </mxCell>
        <mxCell id="VETsok0JzTp0urhvgEMF-26" value="3" style="ellipse;whiteSpace=wrap;html=1;aspect=fixed;" vertex="1" parent="1">
          <mxGeometry x="243" y="332" width="20" height="20" as="geometry" />
        </mxCell>
        <mxCell id="VETsok0JzTp0urhvgEMF-27" value="4" style="ellipse;whiteSpace=wrap;html=1;aspect=fixed;" vertex="1" parent="1">
          <mxGeometry x="494.25" y="362" width="20" height="20" as="geometry" />
        </mxCell>
        <mxCell id="VETsok0JzTp0urhvgEMF-28" value="5a" style="ellipse;whiteSpace=wrap;html=1;aspect=fixed;" vertex="1" parent="1">
          <mxGeometry x="494.25" y="532" width="20" height="20" as="geometry" />
        </mxCell>
        <mxCell id="VETsok0JzTp0urhvgEMF-29" value="5b" style="ellipse;whiteSpace=wrap;html=1;aspect=fixed;" vertex="1" parent="1">
          <mxGeometry x="494.25" y="692" width="20" height="20" as="geometry" />
        </mxCell>
        <mxCell id="VETsok0JzTp0urhvgEMF-30" value="6" style="ellipse;whiteSpace=wrap;html=1;aspect=fixed;" vertex="1" parent="1">
          <mxGeometry x="683" y="282" width="20" height="20" as="geometry" />
        </mxCell>
        <mxCell id="VETsok0JzTp0urhvgEMF-31" value="7" style="ellipse;whiteSpace=wrap;html=1;aspect=fixed;" vertex="1" parent="1">
          <mxGeometry x="53" y="312" width="20" height="20" as="geometry" />
        </mxCell>
        <mxCell id="VETsok0JzTp0urhvgEMF-32" value="8" style="ellipse;whiteSpace=wrap;html=1;aspect=fixed;" vertex="1" parent="1">
          <mxGeometry x="73" y="502" width="20" height="20" as="geometry" />
        </mxCell>
        <mxCell id="VETsok0JzTp0urhvgEMF-33" value="9" style="ellipse;whiteSpace=wrap;html=1;aspect=fixed;" vertex="1" parent="1">
          <mxGeometry x="73" y="183" width="20" height="20" as="geometry" />
        </mxCell>
        <mxCell id="VETsok0JzTp0urhvgEMF-34" value="" style="endArrow=none;html=1;rounded=0;strokeColor=#C20000;strokeWidth=3;fillColor=#f8cecc;entryX=0.63;entryY=0.999;entryDx=0;entryDy=0;entryPerimeter=0;exitX=0.342;exitY=0.996;exitDx=0;exitDy=0;exitPerimeter=0;" edge="1" parent="1" source="VETsok0JzTp0urhvgEMF-6" target="VETsok0JzTp0urhvgEMF-6">
          <mxGeometry width="50" height="50" relative="1" as="geometry">
            <mxPoint x="563" y="688.72" as="sourcePoint" />
            <mxPoint x="583" y="688.72" as="targetPoint" />
          </mxGeometry>
        </mxCell>
        <mxCell id="VETsok0JzTp0urhvgEMF-35" value="" style="edgeStyle=orthogonalEdgeStyle;rounded=0;orthogonalLoop=1;jettySize=auto;html=1;endArrow=none;endFill=0;strokeColor=#C9C9C9;" edge="1" parent="1">
          <mxGeometry relative="1" as="geometry">
            <mxPoint x="349" y="479" as="sourcePoint" />
            <mxPoint x="349" y="449" as="targetPoint" />
          </mxGeometry>
        </mxCell>
        <mxCell id="VETsok0JzTp0urhvgEMF-36" value="" style="group" vertex="1" connectable="0" parent="1">
          <mxGeometry x="338.75" y="449" width="20" height="5" as="geometry" />
        </mxCell>
        <mxCell id="VETsok0JzTp0urhvgEMF-37" value="" style="endArrow=none;html=1;rounded=0;strokeColor=#C9C9C9;strokeWidth=3;" edge="1" parent="VETsok0JzTp0urhvgEMF-36">
          <mxGeometry width="50" height="50" relative="1" as="geometry">
            <mxPoint as="sourcePoint" />
            <mxPoint x="20" as="targetPoint" />
          </mxGeometry>
        </mxCell>
        <mxCell id="VETsok0JzTp0urhvgEMF-38" value="" style="endArrow=none;html=1;rounded=0;strokeWidth=3;strokeColor=#C9C9C9;" edge="1" parent="VETsok0JzTp0urhvgEMF-36">
          <mxGeometry width="50" height="50" relative="1" as="geometry">
            <mxPoint x="9.930000000000007" y="5" as="sourcePoint" />
            <mxPoint x="9.930000000000007" as="targetPoint" />
          </mxGeometry>
        </mxCell>
        <mxCell id="VETsok0JzTp0urhvgEMF-39" value="" style="group" vertex="1" connectable="0" parent="1">
          <mxGeometry x="338.75" y="474" width="20" height="5" as="geometry" />
        </mxCell>
        <mxCell id="VETsok0JzTp0urhvgEMF-40" value="" style="endArrow=none;html=1;rounded=0;strokeColor=#C9C9C9;strokeWidth=3;" edge="1" parent="VETsok0JzTp0urhvgEMF-39">
          <mxGeometry width="50" height="50" relative="1" as="geometry">
            <mxPoint y="5" as="sourcePoint" />
            <mxPoint x="20" y="5" as="targetPoint" />
          </mxGeometry>
        </mxCell>
        <mxCell id="VETsok0JzTp0urhvgEMF-41" value="" style="endArrow=none;html=1;rounded=0;strokeWidth=3;strokeColor=#C9C9C9;" edge="1" parent="VETsok0JzTp0urhvgEMF-39">
          <mxGeometry width="50" height="50" relative="1" as="geometry">
            <mxPoint x="9.930000000000007" y="5" as="sourcePoint" />
            <mxPoint x="9.930000000000007" as="targetPoint" />
          </mxGeometry>
        </mxCell>
        <mxCell id="VETsok0JzTp0urhvgEMF-43" value="" style="edgeStyle=orthogonalEdgeStyle;rounded=0;orthogonalLoop=1;jettySize=auto;html=1;endArrow=none;endFill=0;strokeColor=#b85450;fillColor=#f8cecc;" edge="1" parent="1">
          <mxGeometry relative="1" as="geometry">
            <mxPoint x="490" y="402" as="sourcePoint" />
            <mxPoint x="460" y="383" as="targetPoint" />
            <Array as="points">
              <mxPoint x="475" y="402" />
              <mxPoint x="475" y="383" />
              <mxPoint x="460" y="383" />
            </Array>
          </mxGeometry>
        </mxCell>
        <mxCell id="VETsok0JzTp0urhvgEMF-44" value="" style="group;rotation=-90;" vertex="1" connectable="0" parent="1">
          <mxGeometry x="450" y="380" width="20" height="5" as="geometry" />
        </mxCell>
        <mxCell id="VETsok0JzTp0urhvgEMF-45" value="" style="endArrow=none;html=1;rounded=0;strokeColor=#b85450;strokeWidth=3;fillColor=#f8cecc;" edge="1" parent="VETsok0JzTp0urhvgEMF-44">
          <mxGeometry width="50" height="50" relative="1" as="geometry">
            <mxPoint x="8" y="13" as="sourcePoint" />
            <mxPoint x="8" y="-7" as="targetPoint" />
          </mxGeometry>
        </mxCell>
        <mxCell id="VETsok0JzTp0urhvgEMF-46" value="" style="endArrow=none;html=1;rounded=0;strokeWidth=3;strokeColor=#b85450;fillColor=#f8cecc;" edge="1" parent="VETsok0JzTp0urhvgEMF-44">
          <mxGeometry width="50" height="50" relative="1" as="geometry">
            <mxPoint x="13" y="3" as="sourcePoint" />
            <mxPoint x="8" y="3" as="targetPoint" />
          </mxGeometry>
        </mxCell>
        <mxCell id="VETsok0JzTp0urhvgEMF-47" value="" style="group;rotation=-90;" vertex="1" connectable="0" parent="1">
          <mxGeometry x="478.25" y="399" width="20" height="5" as="geometry" />
        </mxCell>
        <mxCell id="VETsok0JzTp0urhvgEMF-48" value="" style="endArrow=none;html=1;rounded=0;strokeColor=#b85450;strokeWidth=3;fillColor=#f8cecc;" edge="1" parent="VETsok0JzTp0urhvgEMF-47">
          <mxGeometry width="50" height="50" relative="1" as="geometry">
            <mxPoint x="13" y="13" as="sourcePoint" />
            <mxPoint x="13" y="-7" as="targetPoint" />
          </mxGeometry>
        </mxCell>
        <mxCell id="VETsok0JzTp0urhvgEMF-49" value="" style="endArrow=none;html=1;rounded=0;strokeWidth=3;strokeColor=#b85450;fillColor=#f8cecc;" edge="1" parent="VETsok0JzTp0urhvgEMF-47">
          <mxGeometry width="50" height="50" relative="1" as="geometry">
            <mxPoint x="13" y="3" as="sourcePoint" />
            <mxPoint x="8" y="3" as="targetPoint" />
          </mxGeometry>
        </mxCell>
        <mxCell id="VETsok0JzTp0urhvgEMF-50" value="" style="group;rotation=90;" vertex="1" connectable="0" parent="1">
          <mxGeometry x="228" y="422" width="20" height="5" as="geometry" />
        </mxCell>
        <mxCell id="VETsok0JzTp0urhvgEMF-51" value="" style="endArrow=none;html=1;rounded=0;strokeColor=#b85450;strokeWidth=3;fillColor=#f8cecc;" edge="1" parent="VETsok0JzTp0urhvgEMF-50">
          <mxGeometry width="50" height="50" relative="1" as="geometry">
            <mxPoint x="12" y="-8" as="sourcePoint" />
            <mxPoint x="12" y="12" as="targetPoint" />
          </mxGeometry>
        </mxCell>
        <mxCell id="VETsok0JzTp0urhvgEMF-52" value="" style="endArrow=none;html=1;rounded=0;strokeWidth=3;strokeColor=#b85450;fillColor=#f8cecc;" edge="1" parent="VETsok0JzTp0urhvgEMF-50">
          <mxGeometry width="50" height="50" relative="1" as="geometry">
            <mxPoint x="7" y="2" as="sourcePoint" />
            <mxPoint x="12" y="2" as="targetPoint" />
          </mxGeometry>
        </mxCell>
        <mxCell id="VETsok0JzTp0urhvgEMF-53" value="" style="group;rotation=-90;" vertex="1" connectable="0" parent="1">
          <mxGeometry x="202" y="421" width="20" height="5" as="geometry" />
        </mxCell>
        <mxCell id="VETsok0JzTp0urhvgEMF-54" value="" style="endArrow=none;html=1;rounded=0;strokeColor=#b85450;strokeWidth=3;fillColor=#f8cecc;" edge="1" parent="VETsok0JzTp0urhvgEMF-53">
          <mxGeometry width="50" height="50" relative="1" as="geometry">
            <mxPoint x="8" y="13" as="sourcePoint" />
            <mxPoint x="8" y="-7" as="targetPoint" />
          </mxGeometry>
        </mxCell>
        <mxCell id="VETsok0JzTp0urhvgEMF-55" value="" style="endArrow=none;html=1;rounded=0;strokeWidth=3;strokeColor=#b85450;fillColor=#f8cecc;" edge="1" parent="VETsok0JzTp0urhvgEMF-53">
          <mxGeometry width="50" height="50" relative="1" as="geometry">
            <mxPoint x="13" y="3" as="sourcePoint" />
            <mxPoint x="8" y="3" as="targetPoint" />
          </mxGeometry>
        </mxCell>
        <mxCell id="VETsok0JzTp0urhvgEMF-56" value="" style="edgeStyle=orthogonalEdgeStyle;rounded=0;orthogonalLoop=1;jettySize=auto;html=1;endArrow=none;endFill=0;strokeColor=#b85450;fillColor=#f8cecc;" edge="1" parent="1">
          <mxGeometry relative="1" as="geometry">
            <mxPoint x="213" y="424" as="sourcePoint" />
            <mxPoint x="240" y="423.43" as="targetPoint" />
          </mxGeometry>
        </mxCell>
        <mxCell id="VETsok0JzTp0urhvgEMF-57" value="" style="rounded=1;whiteSpace=wrap;html=1;fillColor=#f8cecc;strokeColor=#b85450;" vertex="1" parent="1">
          <mxGeometry x="309.25" y="330" width="20.75" height="10" as="geometry" />
        </mxCell>
        <mxCell id="VETsok0JzTp0urhvgEMF-58" value="" style="edgeStyle=orthogonalEdgeStyle;rounded=0;orthogonalLoop=1;jettySize=auto;html=1;endArrow=none;endFill=0;strokeColor=#C9C9C9;" edge="1" parent="1">
          <mxGeometry relative="1" as="geometry">
            <mxPoint x="620.25" y="529" as="sourcePoint" />
            <mxPoint x="620.25" y="499" as="targetPoint" />
          </mxGeometry>
        </mxCell>
        <mxCell id="VETsok0JzTp0urhvgEMF-59" value="" style="group" vertex="1" connectable="0" parent="1">
          <mxGeometry x="610" y="499" width="20" height="5" as="geometry" />
        </mxCell>
        <mxCell id="VETsok0JzTp0urhvgEMF-60" value="" style="endArrow=none;html=1;rounded=0;strokeColor=#C9C9C9;strokeWidth=3;" edge="1" parent="VETsok0JzTp0urhvgEMF-59">
          <mxGeometry width="50" height="50" relative="1" as="geometry">
            <mxPoint as="sourcePoint" />
            <mxPoint x="20" as="targetPoint" />
          </mxGeometry>
        </mxCell>
        <mxCell id="VETsok0JzTp0urhvgEMF-61" value="" style="endArrow=none;html=1;rounded=0;strokeWidth=3;strokeColor=#C9C9C9;" edge="1" parent="VETsok0JzTp0urhvgEMF-59">
          <mxGeometry width="50" height="50" relative="1" as="geometry">
            <mxPoint x="9.930000000000007" y="5" as="sourcePoint" />
            <mxPoint x="9.930000000000007" as="targetPoint" />
          </mxGeometry>
        </mxCell>
        <mxCell id="VETsok0JzTp0urhvgEMF-62" value="" style="group" vertex="1" connectable="0" parent="1">
          <mxGeometry x="610" y="524" width="20" height="5" as="geometry" />
        </mxCell>
        <mxCell id="VETsok0JzTp0urhvgEMF-63" value="" style="endArrow=none;html=1;rounded=0;strokeColor=#C9C9C9;strokeWidth=3;" edge="1" parent="VETsok0JzTp0urhvgEMF-62">
          <mxGeometry width="50" height="50" relative="1" as="geometry">
            <mxPoint y="5" as="sourcePoint" />
            <mxPoint x="20" y="5" as="targetPoint" />
          </mxGeometry>
        </mxCell>
        <mxCell id="VETsok0JzTp0urhvgEMF-64" value="" style="endArrow=none;html=1;rounded=0;strokeWidth=3;strokeColor=#C9C9C9;" edge="1" parent="VETsok0JzTp0urhvgEMF-62">
          <mxGeometry width="50" height="50" relative="1" as="geometry">
            <mxPoint x="9.930000000000007" y="5" as="sourcePoint" />
            <mxPoint x="9.930000000000007" as="targetPoint" />
          </mxGeometry>
        </mxCell>
        <mxCell id="VETsok0JzTp0urhvgEMF-66" value="" style="rounded=0;whiteSpace=wrap;html=1;rotation=-30;" vertex="1" parent="1">
          <mxGeometry x="84.75" y="361" width="34" height="15" as="geometry" />
        </mxCell>
        <mxCell id="VETsok0JzTp0urhvgEMF-73" value="" style="rounded=0;whiteSpace=wrap;html=1;rotation=-150;" vertex="1" parent="1">
          <mxGeometry x="84.75" y="400" width="34" height="15" as="geometry" />
        </mxCell>
        <mxCell id="VETsok0JzTp0urhvgEMF-68" value="" style="rounded=0;whiteSpace=wrap;html=1;rotation=-90;" vertex="1" parent="1">
          <mxGeometry x="73.61999999999999" y="380.5" width="34" height="15" as="geometry" />
        </mxCell>
        <mxCell id="VETsok0JzTp0urhvgEMF-65" value="" style="rounded=1;whiteSpace=wrap;html=1;fillColor=#f8cecc;strokeColor=#b85450;rotation=-90;" vertex="1" parent="1">
          <mxGeometry x="80.25" y="383" width="20.75" height="10" as="geometry" />
        </mxCell>
      </root>
    </mxGraphModel>
  </diagram>
</mxfile>
